<?xml version="1.0" encoding="UTF-8"?>
<svg id="uuid-aacd53e8-9406-4e77-9610-22570bb21b8b" data-name="图层 1" xmlns="http://www.w3.org/2000/svg" viewBox="0 0 964 1200">
  <defs>
    <style>
      .uuid-49bd5e39-ae12-4588-bd8e-f3a065664f3e {
        fill: #fff;
      }
    </style>
  </defs>
  <path class="uuid-49bd5e39-ae12-4588-bd8e-f3a065664f3e" d="m964,851.27c0,192.85-153.89,348.73-348.59,348.73s-346.66-152.03-346.66-348.73c0-92.57,35.02-174.37,90.6-235.76l-235.66,235.76L0,727.52l265.86-263.08c35.98-36,54.46-82.76,54.46-134.35V0h174.29v330.09c0,101.25-35.98,187.06-106.18,257.13l-7.87,7.71c61.36-56.57,145.06-90.64,234.69-90.64,197.91.16,348.75,157.01,348.75,346.97Zm-157.75,0c0-103.33-85.62-187.06-190.84-187.06s-188.91,87.75-188.91,187.06,83.69,188.99,188.91,188.99c109.07,0,190.84-88.55,190.84-188.99Z"/>
</svg>