<?xml version="1.0" encoding="UTF-8"?>
<svg id="_图层_1" data-name="图层 1" xmlns="http://www.w3.org/2000/svg" version="1.1" viewBox="0 0 18 16">
  <defs>
    <style>
      .cls-1 {
        fill: #fff;
        fill-rule: evenodd;
        stroke-width: 0px;
      }
    </style>
  </defs>
  <path class="cls-1" d="M3.7,1.7c-.4-.4-.4-1,0-1.4.4-.4,1-.4,1.4,0l2.1,2c0,0,.1.1.2.2h3.2c0,0,0-.1.2-.2L12.9.3c.4-.4,1-.4,1.4,0,.4.4.4,1,0,1.4l-.9.8h.6c2.2,0,4,1.8,4,4v5.5c0,2.2-1.8,4-4,4H4c-2.2,0-4-1.8-4-4v-5.5c0-2.2,1.8-4,4-4h.6l-.9-.8ZM4,4.4c-1.1,0-2,.9-2,2v5.6c0,1.1.9,2,2,2h10c1.1,0,2-.9,2-2v-5.6c0-1.1-.9-2-2-2H4ZM5,8.3c0-.6.4-1,1-1s1,.4,1,1v.9c0,.6-.4,1-1,1s-1-.4-1-1v-.9ZM12,7.3c-.6,0-1,.4-1,1v.9c0,.6.4,1,1,1s1-.4,1-1v-.9c0-.6-.4-1-1-1Z"/>
</svg>