<?xml version="1.0" encoding="UTF-8"?>
<svg id="_图层_1" data-name="图层 1" xmlns="http://www.w3.org/2000/svg" version="1.1" viewBox="0 0 800 650">
  <defs>
    <style>
      .cls-1 {
        fill: #fff;
        fill-rule: evenodd;
        stroke-width: 0px;
      }
    </style>
  </defs>
  <g id="Page-1">
    <g id="Dribbble-Light-Preview">
      <g id="icons">
        <path id="soundcloud-_164_" data-name="soundcloud-[#164]" class="cls-1" d="M343.4,534.9V133.8c0-12.8,3.8-20.4,11.6-22.9,128.5-30.4,258.3,59.3,270.1,194.3,125.6-53,234.8,106.8,137.5,202.8-24.7,24.3-54.3,36.5-88.8,36.5l-323.7-.4c-4.3-1.4-6.7-5.8-6.7-9.2h0ZM256.4,523.1c0,29,55.1,29.4,55.1,0V137.2c0-36.5-55.1-36.4-55.1,0v385.9h0ZM170.8,523.1c0,28.3,55.1,29.4,55.1,0v-227.5c0-36.5-55.1-36.4-55.1,0v227.5h0ZM85.6,511.3c0,29.2,54.7,29.6,54.7,0v-249.2c0-35.3-54.7-35.7-54.7,0,0,0,0,249.2,0,249.2ZM0,465.6c0,34,54.7,42.6,54.7,0v-106.9C54.7,322.5,0,322.8,0,358.7v106.9Z"/>
      </g>
    </g>
  </g>
</svg>