<?xml version="1.0" encoding="utf-8"?>
<!-- Generator: $$$/GeneralStr/196=Adobe Illustrator 27.6.0, SVG Export Plug-In . SVG Version: 6.00 Build 0)  -->
<svg version="1.1" id="Layer_1" xmlns="http://www.w3.org/2000/svg" xmlns:xlink="http://www.w3.org/1999/xlink" x="0px" y="0px"
	 viewBox="0 0 800 600" style="enable-background:new 0 0 800 600;" xml:space="preserve">
<style type="text/css">
	.st0{fill:none;stroke:#FFFFFF;stroke-width:4;stroke-miterlimit:333.3333;}
	.st1{fill:#FFFFFF;}
</style>
<g>
	<g>
		<polyline class="st0" points="385.5,278.1 370.8,263.6 385.5,248.9 		"/>
		<polyline class="st0" points="414.5,278.1 429.2,263.6 414.5,248.9 		"/>
		<line class="st0" x1="404.8" y1="248.9" x2="395.2" y2="278.1"/>
		<polygon class="st0" points="443.7,229.5 443.7,312.2 356.3,312.2 356.3,205.2 419.4,205.2 		"/>
		<polygon class="st0" points="443.7,229.5 443.7,234.4 414.5,234.4 414.5,205.2 419.4,205.2 		"/>
	</g>
	<g>
		<path class="st1" d="M349.6,340.1c-0.7,2.1-1.4,4-2.1,5.7v17.3h-1.9v-13.5c-0.8,1.4-1.7,2.6-2.5,3.7l-0.8-2.4c1-1.3,2-3,3-5.1
			c1-2.1,1.8-4.2,2.5-6.5L349.6,340.1z M361.1,348.9h3.4l-0.5,10.2c-0.1,0.9-0.2,1.6-0.4,2c-0.2,0.5-0.6,0.8-1.2,1
			c-0.5,0.2-1.3,0.3-2.3,0.3h-3.3l-0.4-1.9h3c0.7,0,1.2-0.1,1.6-0.2c0.3-0.1,0.6-0.3,0.8-0.6c0.2-0.3,0.3-0.8,0.3-1.5
			c0.2-4.3,0.3-6.8,0.4-7.5h-3.3v-1.9l1.5-5.8h-5.7c0,4.2-0.2,7.4-0.4,9.7c-0.3,2.3-0.7,4.1-1.4,5.7c-0.7,1.5-1.7,3.1-3.1,4.9
			l-1.6-1.4c1.4-1.7,2.4-3.2,3-4.6c0.6-1.3,1-3,1.2-5.1s0.3-5.1,0.4-9.2h-2.5v-1.9h12.3v1.8L361.1,348.9z"/>
		<path class="st1" d="M377.6,344.4c-1,2.2-2.2,4.2-3.4,5.9v12.7h-2v-10.3c-0.9,1-1.8,1.9-2.8,2.8l-0.9-2.1c1.3-1.1,2.6-2.5,3.8-4
			c1.2-1.6,2.2-3.3,3.2-5.1h-6.8v-1.9h7.7c0.5-1.3,1-2.4,1.3-3.5l1.9,0.4c-0.3,1-0.7,2.1-1.1,3.1h12.8v1.9H377.6z M384.4,352.6v6.9
			h7.1v1.9h-16.2v-1.9h7.1v-6.9h-6v-1.9h6v-4.5h2v4.5h6.1v1.9H384.4z"/>
		<path class="st1" d="M400.1,348.9c1.5,1.2,2.6,2.2,3.6,3.1l-1.1,1.5c-0.8-0.9-1.6-1.7-2.4-2.4v12.1h-1.8v-12.8
			c-0.9,2.5-1.9,4.6-3.1,6.5l-0.7-2.3c0.7-1.1,1.3-2.4,2-3.9s1.2-3,1.6-4.5h-2.9v-1.9h3.2v-5.1h1.8v5.1h3v1.9h-3V348.9z
			 M416.8,342.9c0,0.5-0.2,5.2-0.4,14.3l-0.1,1.9c0,1.3-0.3,2.2-0.9,2.7c-0.6,0.5-1.6,0.8-3,0.8h-3.8l-0.4-2h3.4
			c0.8,0,1.3-0.1,1.7-0.2c0.4-0.1,0.7-0.3,0.8-0.7c0.2-0.3,0.3-0.8,0.3-1.5l0.4-13.3h-8.5c-0.7,1.5-1.5,3-2.4,4.3l-1.5-1
			c0.9-1.3,1.7-2.7,2.4-4.3c0.7-1.6,1.3-3.2,1.8-4.7l1.8,0.5c-0.3,1.1-0.7,2.2-1.2,3.3H416.8z M412.3,358.2c-0.4-1-0.6-1.5-0.6-1.5
			l-7.9,0.7l-0.5-1.7c0.8-1.3,1.6-2.8,2.3-4.5c0.7-1.7,1.3-3.2,1.7-4.6l1.8,0.6c-0.4,1.1-0.9,2.6-1.6,4.2c-0.7,1.7-1.3,3-1.8,3.9
			l5.5-0.4c-0.9-2-1.5-3.4-2-4.3l1.5-0.8c0.5,1,1.1,2.3,1.8,3.9c0.7,1.5,1.2,2.8,1.6,3.7L412.3,358.2z"/>
		<path class="st1" d="M428.8,359.8c1.2,0.4,2.7,0.6,4.4,0.6h10.5l-0.3,1.8h-10.3c-1.9,0-3.5-0.2-4.8-0.6c-1.4-0.4-2.6-1.1-3.6-2.2
			c-0.7,1.2-1.7,2.5-2.9,3.8l-1.3-1.5c1.3-1.3,2.3-2.5,3-3.8c-1-1.5-1.8-3.4-2.5-5.7l1.4-0.5c0.6,1.8,1.2,3.3,2,4.5
			c0.7-1.7,1.2-3.7,1.6-6h-4.6v-1.6l4.4-5.6H421v-1.7h6.9v1.7l-4.3,5.6h4.2v1.6c-0.2,1.6-0.5,3-0.8,4.2c-0.3,1.2-0.7,2.4-1.3,3.4
			C426.6,358.7,427.6,359.4,428.8,359.8z M441.8,341.4v3.6h2v1.6h-2v3.7H436v2.1h6.3v1.6H436v2.1h7.2v1.6H436v2.1h-1.8v-2.1H428V356
			h6.2v-2.1h-5v-1.6h5v-2.1h-4.8v-1.5h4.8v-2.1h-5.8V345h5.8v-2.1h-4.8v-1.5h4.8v-2.2h1.8v2.2H441.8z M439.9,342.9H436v2.1h3.9
			V342.9z M436,348.7h3.9v-2.1H436V348.7z"/>
		<path class="st1" d="M459.4,339.2v5.1h9v10.8h-9v8h-2v-8h-8.9v-10.8h8.9v-5.1H459.4z M450.5,346.4v6.7h6.8v-6.7H450.5z
			 M459.4,346.4v6.7h6.9v-6.7H459.4z"/>
		<path class="st1" d="M313.1,383.6h-7.4v6.5c0,0.7,0.1,1.1,0.4,1.4c0.3,0.3,0.7,0.4,1.4,0.4h1.4c0.6,0,1-0.1,1.3-0.2
			c0.3-0.1,0.5-0.3,0.6-0.5c0.1-0.2,0.2-0.6,0.2-1c0.1-0.7,0.1-1.8,0.1-3.1l1.9,0.4c0,0.4,0,0.9,0,1.5c0,0.6-0.1,1.2-0.1,1.8
			c-0.1,0.8-0.2,1.5-0.4,1.9c-0.2,0.4-0.6,0.7-1.1,0.9c-0.5,0.2-1.2,0.2-2.2,0.2h-2.4c-0.8,0-1.4-0.1-1.9-0.3
			c-0.4-0.2-0.7-0.5-0.9-0.9c-0.2-0.4-0.3-1.1-0.3-1.9v-7.1h-4.3l0,0.5c-0.1,1.9-0.4,3.4-0.9,4.6c-0.5,1.2-1.2,2.2-2.3,3.1
			c-1,0.9-2.5,1.8-4.4,2.8l-1.3-1.9c1.8-0.8,3.1-1.5,4-2.3c0.9-0.7,1.6-1.6,2-2.5c0.4-1,0.7-2.2,0.7-3.8l0-0.5h-6.8v-1.9h10.7v-4.8
			h-5.8c-0.6,1.3-1.2,2.5-2,3.8l-1.8-0.9c1.4-2,2.7-4.8,3.7-8.3l1.9,0.5c-0.3,1.1-0.6,2.1-1,3.1h5v-4.4h2.1v4.4h8.4v1.9h-8.4v4.8
			h9.9V383.6z"/>
		<path class="st1" d="M327.7,383.9c-0.8,1.2-1.8,2.4-3,3.8c-1.2,1.4-2.2,2.5-3.3,3.6l12.4-0.5c-1.3-1.5-2.4-2.9-3.4-4l1.5-1.2
			c1.5,1.6,3.6,4.2,6.4,7.5l-1.6,1.4c-0.6-0.8-1.1-1.4-1.5-1.9l-16.4,0.8l-0.6-1.9c1.2-1.1,2.5-2.3,3.7-3.6c1.2-1.4,2.3-2.7,3.2-3.9
			h-8.6V382h10.3v-5.3h-8.6v-1.9h8.6v-4.3h2v4.3h8.6v1.9h-8.6v5.3h10.3v1.9H327.7z"/>
		<path class="st1" d="M342.5,393.9c0.6-0.9,1.1-1.9,1.7-2.9c0.6-1.1,1-2,1.3-2.9l1.7,0.6c-0.3,0.9-0.7,1.9-1.2,3
			c-0.5,1.1-1.1,2.1-1.6,3L342.5,393.9z M344,372.1h7.1V387H344V372.1z M349.3,378.7v-4.9h-3.6v4.9H349.3z M345.7,380.4v4.8h3.6
			v-4.8H345.7z M351.1,388.6c0.3,1.1,0.7,2.9,1.3,5.4l-1.9,0.3c-0.1-1.1-0.5-2.9-1.1-5.4L351.1,388.6z M355.8,377.9
			c-0.6,0.8-1.5,1.6-2.7,2.3l-1.3-1.5c0.8-0.4,1.5-0.9,2-1.3c0.5-0.5,0.8-0.9,1.1-1.4c0.2-0.5,0.4-1.1,0.6-1.8
			c0-0.1,0.1-0.3,0.1-0.5h-3v-1.7h11.6c-0.2,2.5-0.3,4-0.3,4.5c-0.1,1-0.3,1.7-0.8,2.1c-0.5,0.4-1.3,0.6-2.4,0.6h-2.4l-0.3-1.6h2.2
			c0.8,0,1.3-0.1,1.6-0.3c0.3-0.2,0.4-0.6,0.5-1.3c0.1-0.9,0.1-1.7,0.2-2.2h-5c0,0.3-0.1,0.7-0.2,1.3
			C356.9,376.1,356.5,377.1,355.8,377.9z M353.3,380.6h10.5v6.9h-10.5V380.6z M356.6,388.4c1.1,2.5,1.8,4.2,2.1,5.2l-1.8,0.5
			c-0.2-0.7-0.5-1.5-0.8-2.5c-0.4-1-0.7-1.9-1.1-2.7L356.6,388.4z M355.1,385.8h7.1v-3.6h-7.1V385.8z M362,387.9
			c0.6,0.8,1.2,1.8,1.8,2.9c0.7,1.1,1.2,2,1.6,2.8l-1.8,0.9c-0.5-1.2-1.6-3.1-3.2-5.7L362,387.9z"/>
		<path class="st1" d="M391.4,379.4h-16.7c0,1.8,0,3.3-0.1,4.4h11.7v10.6h-2v-8.7h-9.9c-0.2,1.9-0.6,3.5-1.1,4.8
			c-0.5,1.3-1.4,2.7-2.5,4.2l-1.9-1.1c1.1-1.3,1.9-2.6,2.4-3.8c0.5-1.2,0.9-2.6,1.1-4.2c0.2-1.6,0.3-3.6,0.3-6.2v-8.3h1.9v6.4h8.7
			v-6.8h1.9v6.8h6V379.4z"/>
		<path class="st1" d="M401.5,388l0.2,1c-1,0.3-2.2,0.7-3.9,1.2c-1.6,0.5-2.6,0.8-2.9,1l-0.5-2.1c0.4-0.1,1.4-0.4,3-0.9v-9.4h-2.3
			V377h2.3v-6h1.8v6h2.1v1.9h-2.1v8.9c1.3-0.4,2-0.6,2.1-0.7L401.5,388z M410.4,374.6v4.8h7.4v1.6h-16.6v-1.6h7.3v-4.8H402V373h6.5
			v-2.4h1.9v2.4h6.7v1.6H410.4z M404.2,394.5h-1.8v-11.8h14v11.8h-1.8v-1.2h-10.4V394.5z M404.2,375c1,1.1,1.8,2,2.5,2.8l-1.3,1.1
			c-0.6-0.7-1.4-1.7-2.5-2.9L404.2,375z M414.6,391.8v-7.6h-10.4v7.6H414.6z M405.9,385.8h6.9v4.4h-6.9V385.8z M407.4,388.9h4v-1.8
			h-4V388.9z M412,377.8c0.1-0.1,0.5-0.5,1.1-1.1c0.6-0.6,1.1-1.2,1.5-1.8l1.3,1.1c-0.6,0.8-1.5,1.8-2.6,3L412,377.8z"/>
		<path class="st1" d="M443.6,380.9h-14.3c-0.3,0.6-0.7,1.2-1.2,1.8h12.4v11.8h-1.8v-1.2h-11.3v1.3h-1.8v-8.9
			c-1.1,1.1-2.5,2.3-4,3.5l-0.9-1.8c2.7-1.9,4.9-4.1,6.4-6.4h-6.1v-1.6h7.1c0.3-0.6,0.6-1.2,0.9-1.9h-6.1v-1.6h6.7
			c0.2-0.6,0.4-1.3,0.6-2c-2.7,0.2-5.3,0.3-7.9,0.3l-0.1-1.7c3-0.1,6.4-0.2,10.2-0.4c3.8-0.2,7-0.5,9.7-0.8l0.1,1.8
			c-2.9,0.3-6.2,0.6-10,0.8l-0.5,2.1h10.3v1.6H431c-0.2,0.7-0.5,1.3-0.8,1.9h13.4V380.9z M427.4,385.8h11.3v-1.5h-11.3V385.8z
			 M438.8,387.3h-11.3v1.5h11.3V387.3z M427.4,390.3v1.5h11.3v-1.5H427.4z"/>
		<path class="st1" d="M469.7,380.9h-14.3c-0.3,0.6-0.7,1.2-1.2,1.8h12.4v11.8h-1.8v-1.2h-11.3v1.3h-1.8v-8.9
			c-1.1,1.1-2.5,2.3-4,3.5l-0.9-1.8c2.7-1.9,4.9-4.1,6.4-6.4H447v-1.6h7.1c0.3-0.6,0.6-1.2,0.9-1.9h-6.1v-1.6h6.7
			c0.2-0.6,0.4-1.3,0.6-2c-2.7,0.2-5.3,0.3-7.9,0.3l-0.1-1.7c3-0.1,6.4-0.2,10.2-0.4c3.8-0.2,7-0.5,9.7-0.8l0.1,1.8
			c-2.9,0.3-6.2,0.6-10,0.8l-0.5,2.1h10.3v1.6h-10.8c-0.2,0.7-0.5,1.3-0.8,1.9h13.4V380.9z M453.5,385.8h11.3v-1.5h-11.3V385.8z
			 M464.9,387.3h-11.3v1.5h11.3V387.3z M453.5,390.3v1.5h11.3v-1.5H453.5z"/>
		<path class="st1" d="M475.8,391.3h-1.7v-18.3h6.2v16.2h-4.5V391.3z M478.5,387.3V375h-2.7v12.4H478.5z M495.6,387l0,0.8
			c-0.1,1.6-0.1,2.6-0.1,2.9c-0.1,0.8-0.2,1.4-0.4,1.8c-0.2,0.4-0.6,0.8-1.1,1c-0.5,0.2-1.2,0.3-2,0.3h-6.3c-1.2,0-2.1-0.3-2.6-0.8
			c-0.5-0.5-0.8-1.5-0.8-2.8v-17.9h12.2v11.3h-10.4v6.2c0,0.6,0.1,1.1,0.2,1.4c0.1,0.3,0.3,0.5,0.6,0.7c0.3,0.1,0.7,0.2,1.3,0.2h5.2
			c0.6,0,1-0.1,1.3-0.2c0.3-0.1,0.5-0.3,0.6-0.6c0.1-0.3,0.2-0.7,0.2-1.2c0-0.5,0.1-1,0.1-1.6c0-0.6,0-1.2,0-1.6L495.6,387z
			 M487.4,381.4v-7.4h-3.3v7.4H487.4z M489.2,381.4h3.4v-7.4h-3.4V381.4z"/>
		<path class="st1" d="M503.1,385.1c-0.1-0.9,0.1-1.7,0.5-2.4c0.4-0.6,0.9-1.3,1.7-2c0.6-0.6,1.1-1.2,1.4-1.7
			c0.3-0.5,0.5-1.1,0.5-1.8c0-0.7-0.3-1.3-0.8-1.8c-0.5-0.5-1.3-0.8-2.2-0.8c-0.8,0-1.5,0.2-2.2,0.7c-0.6,0.5-1.1,1.1-1.5,2l-1.9-1
			c0.5-1.2,1.3-2.1,2.2-2.8c1-0.7,2.1-1,3.5-1c1.1,0,2,0.2,2.8,0.6c0.8,0.4,1.4,1,1.8,1.7c0.4,0.7,0.6,1.4,0.6,2.2
			c0,0.8-0.1,1.5-0.4,2.1c-0.2,0.6-0.5,1.1-0.8,1.5c-0.3,0.4-0.8,0.8-1.3,1.3c-0.6,0.5-1,1-1.3,1.4c-0.3,0.4-0.5,0.9-0.5,1.5l-0.1,2
			h-1.9L503.1,385.1z M505.5,392.7h-2.7V390h2.7V392.7z"/>
	</g>
</g>
</svg>
