<svg id="b8012d41-5a0b-4c31-b312-88086aaf8e71" data-name="shop" xmlns="http://www.w3.org/2000/svg" viewBox="0 0 18 20"><defs><style>.b5dc977a-b96d-4acb-9659-549efc0b3838{fill:#fff;}</style></defs><g id="fe06894a-501e-49a4-a430-1865b484c7da" data-name="akm-cart"><path id="abd8f1f3-0c3c-42c5-899d-0ead8d79ae09" data-name="akm-cart 2" class="b5dc977a-b96d-4acb-9659-549efc0b3838" d="M0,17q0,3,3.18,3H15.12C16.94,20,18,19,18,17V6.84c0-2-1.07-3-3.18-3H13.19A4.09,4.09,0,0,0,9,0,4.1,4.1,0,0,0,4.8,3.81H3.18c-2.12,0-3.18,1-3.18,3ZM6.43,3.81A2.48,2.48,0,0,1,9,1.49a2.47,2.47,0,0,1,2.57,2.32ZM1.63,16.89v-10A1.39,1.39,0,0,1,3.2,5.38H14.79a1.4,1.4,0,0,1,1.58,1.54v10c0,1-.58,1.53-1.28,1.53H3.2A1.39,1.39,0,0,1,1.63,16.89Z"/></g></svg>